<svg width="1280" height="720" xmlns="http://www.w3.org/2000/svg" xmlns:xlink="http://www.w3.org/1999/xlink" overflow="hidden"><defs><clipPath id="clip0"><rect x="0" y="0" width="1280" height="720"/></clipPath></defs><g clip-path="url(#clip0)"><rect x="0" y="0" width="1280" height="720" fill="#FFFFFF"/><path d="M588 225.334C588 213.551 597.551 204 609.334 204L830.666 204C842.449 204 852 213.551 852 225.334L852 310.666C852 322.449 842.449 332 830.666 332L609.334 332C597.551 332 588 322.449 588 310.666Z" fill="#0EFA8F" fill-rule="evenodd"/><path d="M464.987 318 580 318 580 475 419.57 475 419.57 461.555C419.57 451.232 411.198 442.864 400.871 442.864L380 442.864 380 425.22Z" fill="#0EFA8F" fill-rule="evenodd"/><path d="M469.766 347 532.454 347C533.86 347 535 348.149 535 349.566L535 402.013 476.938 402.013C465.659 402.013 456.515 411.229 456.515 422.597L456.515 423 428.546 423C427.14 423 426 421.851 426 420.434L426 400.666Z" fill="#FFFFFF" fill-rule="evenodd"/><rect x="588" y="289" width="265" height="87" fill="#00B0F0"/><rect x="588" y="391" width="265" height="86" fill="#8FE2FF"/><path d="M372 462.5C372 455.596 377.596 450 384.5 450L399.5 450C406.404 450 412 455.596 412 462.5L412 462.5C412 469.404 406.404 475 399.5 475L384.5 475C377.596 475 372 469.404 372 462.5Z" fill="#039F58" fill-rule="evenodd"/><path d="M443.5 484.5C443.5 466.827 458.051 452.5 476 452.5 493.949 452.5 508.5 466.827 508.5 484.5 508.5 502.173 493.949 516.5 476 516.5 458.051 516.5 443.5 502.173 443.5 484.5Z" stroke="#FFFFFF" stroke-width="1.33333" stroke-miterlimit="8" fill="#FFFFFF" fill-rule="evenodd"/><path d="M448.5 485C448.5 469.812 460.812 457.5 476 457.5 491.188 457.5 503.5 469.812 503.5 485 503.5 500.188 491.188 512.5 476 512.5 460.812 512.5 448.5 500.188 448.5 485Z" stroke="#2F528F" stroke-width="1.33333" stroke-miterlimit="8" fill="#4472C4" fill-rule="evenodd"/><path d="M688.5 484.5C688.5 466.827 703.051 452.5 721 452.5 738.949 452.5 753.5 466.827 753.5 484.5 753.5 502.173 738.949 516.5 721 516.5 703.051 516.5 688.5 502.173 688.5 484.5Z" stroke="#FFFFFF" stroke-width="1.33333" stroke-miterlimit="8" fill="#FFFFFF" fill-rule="evenodd"/><path d="M692.5 485C692.5 469.812 705.036 457.5 720.5 457.5 735.964 457.5 748.5 469.812 748.5 485 748.5 500.188 735.964 512.5 720.5 512.5 705.036 512.5 692.5 500.188 692.5 485Z" stroke="#2F528F" stroke-width="1.33333" stroke-miterlimit="8" fill="#4472C4" fill-rule="evenodd"/><path d="M762.9 230.551 757.719 353.08 756.867 352.676 727.084 297.695 660.137 306.815 658.146 305.871Z" stroke="#2F528F" stroke-width="1.33333" stroke-miterlimit="8" fill="#FFFFFF" fill-rule="evenodd"/></g></svg>